<svg width="128" height="128" viewBox="0 0 128 128" fill="none" xmlns="http://www.w3.org/2000/svg">
<path d="M94.6645 17.7068C92.7638 18.7246 89.1624 21.0447 86.3594 25.133C87.2123 26.3715 87.9809 27.6413 88.6509 28.9421C93.0105 24.4709 94.2919 19.9359 94.6645 17.7068Z" fill="white"/>
<path d="M85.3155 23.6932C87.6706 20.4306 90.432 18.2884 92.4677 17.02C87.2149 17.2212 83.4252 19.3439 82.2022 20.1294C83.3148 21.2472 84.3548 22.4364 85.3155 23.6932Z" fill="white"/>
<path d="M37.1972 12.8551C38.6487 12.1086 40.1495 11.4685 41.6841 10.9258C41.105 9.80023 38.8395 5.88979 34.167 3.03616C35.3705 5.22507 36.7999 8.62269 37.1972 12.8551Z" fill="white"/>
<path d="M35.5549 13.3497C35.1551 8.27344 33.096 4.40325 31.9184 2.56229C31.1148 4.79014 29.9346 9.71843 31.9158 16.193C33.0908 15.2959 34.3306 14.4585 35.6471 13.699C35.6523 13.6964 35.6588 13.6938 35.664 13.6899C35.6069 13.5873 35.5653 13.4744 35.5549 13.3497Z" fill="white"/>
<path d="M55.8886 10.4922C49.0246 10.2131 42.3124 11.8022 36.4896 15.1609C29.0375 19.4595 23.9235 26.156 22.0073 34.0652C26.7434 36.1022 31.4107 36.2307 35.8898 34.4027C47.0317 29.8561 54.1203 14.661 55.8886 10.4922Z" fill="white"/>
<path d="M29.4218 37.3914C26.8655 37.3914 24.2754 36.8201 21.6697 35.7439C19.4587 48.0113 25.4257 60.5762 36.8402 67.8414C36.7441 66.9585 36.7818 66.0588 36.9752 65.1669L39.0395 55.6492C36.1002 53.8458 33.5672 51.4843 31.6509 48.654C31.39 48.2684 31.4912 47.7439 31.8768 47.4829C32.2611 47.2207 32.7869 47.322 33.0479 47.7089C36.0703 52.1711 40.7169 55.422 46.1515 56.9124L50.1956 38.269C49.0038 37.8211 47.9236 37.0629 47.0798 36.0606C46.0217 34.8039 45.5205 33.3654 45.7399 32.2138C46.1762 29.9301 49.4271 28.6968 53.1324 29.4017C54.8175 29.7224 56.343 30.4027 57.4284 31.3154C58.6475 32.341 59.1954 33.5562 58.9707 34.7364C58.7513 35.888 57.7569 37.0395 56.3093 37.8198C55.1953 38.4196 53.9581 38.7299 52.7273 38.7299C52.43 38.7299 52.1366 38.6832 51.8419 38.6468L47.7977 57.2915C53.1116 58.3652 58.5008 57.6615 63.1084 55.2233C63.5225 55.0078 64.0315 55.1649 64.2496 55.5752C64.4664 55.9867 64.3093 56.4982 63.8977 56.7164C61.2116 58.1367 58.2801 59.0117 55.2512 59.3376L53.2219 68.6917C52.8389 70.46 51.9055 72.0127 50.5657 73.1799C59.2122 74.7327 67.912 73.3006 75.211 69.089C82.8774 64.6671 88.0783 57.7121 89.8596 49.5044C89.9777 48.9604 90.0777 48.4138 90.1633 47.8672L84.8404 46.5495C84.3873 46.4378 84.112 45.9808 84.2237 45.5277C84.3354 45.0746 84.7936 44.7994 85.2455 44.911L90.375 46.1808C90.3996 45.9237 90.4178 45.6679 90.436 45.4109L84.3639 43.901C83.9108 43.788 83.6356 43.3297 83.7485 42.8779C83.8615 42.4261 84.3146 42.1496 84.7716 42.2625L90.5087 43.6894C90.5113 43.4284 90.51 43.1687 90.5061 42.9091L86.4814 41.9354C86.0283 41.825 85.7505 41.3693 85.8595 40.9162C85.9712 40.4631 86.4282 40.1879 86.8787 40.2943L90.423 41.1525C90.0024 35.7114 88.0497 30.378 84.643 25.6094C79.4811 18.3832 71.6264 13.3173 62.5281 11.3426C60.9104 10.9908 59.2888 10.7506 57.6725 10.6091C56.2911 14.0378 48.9675 30.8857 36.5312 35.9633C34.1995 36.9149 31.8249 37.3914 29.4218 37.3914Z" fill="white"/>
<path d="M40.578 56.5164L38.6241 65.5213C38.2489 67.2506 38.5695 69.0228 39.529 70.5093C40.4858 71.9985 41.9658 73.0241 43.6952 73.3993C45.4232 73.7758 47.1966 73.4538 48.6845 72.497C50.1723 71.5389 51.1992 70.0601 51.5745 68.3308L53.4998 59.457C53.1947 59.4687 52.8896 59.4843 52.5832 59.4843C50.6397 59.4843 48.6767 59.2467 46.7267 58.7949C46.6877 58.7923 46.6501 58.7923 46.6111 58.7832C46.5864 58.778 46.5696 58.7612 46.5462 58.7547C46.393 58.7183 46.2398 58.691 46.0879 58.6521C44.1457 58.1497 42.3073 57.4174 40.578 56.5164Z" fill="white"/>
<path d="M25.0868 126.31H95.7174C112.744 121.136 111.016 98.7263 110.997 98.4978C108.733 77.8265 91.8238 67.7648 84.0393 64.1932C81.7816 66.6443 79.1032 68.7865 76.0535 70.5457C70.4086 73.8018 63.9678 75.4753 57.3465 75.4753C54.5189 75.4766 51.6588 75.1715 48.8129 74.5535L48.539 74.4925C47.4588 74.9871 46.2955 75.2403 45.1141 75.2403C44.5234 75.2403 43.9275 75.1767 43.3355 75.0481C41.1647 74.5782 39.3082 73.2903 38.1073 71.4233C37.8541 71.0312 37.6451 70.6184 37.4633 70.1977C36.709 69.7654 35.969 69.3188 35.2562 68.8449V116.926H43.7756V96.5127C43.7756 96.0466 44.1534 95.6688 44.6195 95.6688C45.0855 95.6688 45.4633 96.0466 45.4633 96.5127V116.928H54.1034C53.6698 100.916 60.3638 91.143 66.132 85.7486C72.5001 79.7947 78.9565 77.7875 79.2278 77.7057C79.6745 77.572 80.1444 77.8226 80.2808 78.2679C80.4171 78.7132 80.1652 79.1858 79.7199 79.3208C79.4693 79.3974 54.9603 87.2481 55.7899 116.928H78.2386C78.493 116.943 97.5376 118.228 99.3188 105.59C99.3837 105.128 99.8109 104.806 100.272 104.872C100.734 104.936 101.055 105.364 100.99 105.825C100.155 111.747 95.9004 115.836 88.6846 117.651C85.2766 118.508 82.001 118.668 80.0354 118.668C78.9709 118.668 78.2917 118.62 78.1823 118.613L78.1736 118.612L54.998 118.613C54.998 118.613 54.9967 118.615 54.9954 118.615H54.959C54.9564 118.615 54.9551 118.613 54.9525 118.613H44.6234C44.6221 118.613 44.6208 118.615 44.6195 118.615C44.6182 118.615 44.6169 118.613 44.6156 118.613H34.4136H34.4123H26.8641C26.398 118.613 26.0202 118.236 26.0202 117.77C26.0202 117.303 26.398 116.926 26.8641 116.926H32.4649C31.7548 113.302 28.5142 110.569 24.7518 110.569C20.4168 110.569 16.8907 114.097 16.8907 118.43C16.8907 122.765 20.4181 126.291 24.7518 126.291C24.8271 126.291 24.8946 126.316 24.9634 126.334C25.005 126.328 25.0426 126.31 25.0868 126.31Z" fill="white"/>
<path d="M112.677 98.3355C110.359 77.1838 93.4337 66.7417 85.1909 62.8702C88.2951 59.1 90.4606 54.6858 91.5084 49.8588C91.6226 49.3304 91.7226 48.8007 91.8083 48.271L94.7411 48.9967C94.8099 49.0136 94.8774 49.0227 94.9449 49.0227C95.324 49.0227 95.6681 48.7657 95.7628 48.3814C95.8745 47.9283 95.5993 47.4713 95.1462 47.3596L92.0355 46.5897C92.0627 46.334 92.0757 46.0782 92.0965 45.8224L96.843 47.0026C96.9118 47.0195 96.9793 47.0285 97.0468 47.0285C97.4259 47.0285 97.77 46.7715 97.8648 46.3872C97.9764 45.9354 97.7025 45.4771 97.2494 45.3641L92.1861 44.1061C92.1926 43.8439 92.2068 43.5816 92.2055 43.3206L96.2004 44.2879C96.2666 44.3034 96.3341 44.3112 96.399 44.3112C96.7794 44.3112 97.1247 44.0516 97.2182 43.666C97.3273 43.2129 97.0494 42.7572 96.5963 42.6468L92.1484 41.5706C91.9264 37.8081 91.0098 34.0898 89.4233 30.5507C96.3458 23.7581 96.5029 16.7616 96.5055 16.3098C96.5055 16.3046 96.5055 16.2878 96.5055 16.2852C96.5055 16.0632 96.4172 15.8632 96.2744 15.7113C96.2484 15.6828 96.2146 15.6659 96.1861 15.6425C96.1354 15.601 96.0848 15.5594 96.0251 15.5309C95.981 15.5088 95.9329 15.501 95.8849 15.488C95.842 15.4763 95.8031 15.4543 95.7577 15.4491C95.7343 15.4465 95.7122 15.4465 95.6875 15.4439C95.6862 15.4439 95.685 15.4439 95.6837 15.4439C87.6667 14.561 82.0569 18.1521 80.9468 18.9324C75.99 14.3987 69.7803 11.1907 62.8825 9.69376C56.234 8.25267 49.5049 8.52011 43.303 10.3961C42.7798 9.2913 39.651 3.28543 32.1287 0.0903488C32.1066 0.0812608 32.0859 0.0695763 32.0638 0.0604883C32.0209 0.0423123 31.9755 0.0423123 31.9314 0.031926C31.8833 0.0202415 31.8379 0.00466199 31.7898 0.000767138C31.7249 -0.00312772 31.6626 0.00855685 31.599 0.0189431C31.56 0.0254346 31.5211 0.0241363 31.4821 0.0371191C31.2848 0.0994368 31.1095 0.231862 31.0018 0.424008C30.8512 0.692753 27.3367 7.0959 30.3176 16.7577C30.376 16.9486 30.4993 17.1005 30.6525 17.2043C27.795 19.6088 25.4231 22.4222 23.6119 25.5523L18.3552 24.3099C17.9021 24.1995 17.4464 24.4825 17.3399 24.9369C17.2322 25.39 17.5126 25.8444 17.967 25.9522L22.7823 27.0908C22.6655 27.3219 22.5525 27.553 22.4409 27.7867L16.0378 26.2807C15.5821 26.1716 15.129 26.4546 15.0225 26.909C14.916 27.3634 15.1978 27.8178 15.6509 27.9243L21.7489 29.3589C21.6515 29.5991 21.5594 29.8406 21.4672 30.0833L16.3922 28.9149C15.9365 28.8136 15.4847 29.0927 15.3808 29.5471C15.277 30.0015 15.56 30.4546 16.0131 30.5585L20.9141 31.688C20.635 32.5747 20.387 33.4745 20.1884 34.3923C17.4983 46.791 22.8187 59.6076 33.5672 67.6349V114.761C32.1326 111.274 28.7298 108.885 24.7492 108.885C19.4847 108.885 15.2017 113.168 15.2017 118.433C15.2017 123.699 19.4847 127.982 24.7492 127.982C24.7934 127.982 24.831 127.964 24.8726 127.957C24.9414 127.975 25.0089 128 25.0842 128H95.8394C95.9212 128 96.0017 127.988 96.0809 127.965C103.74 125.684 109.039 119.818 111.407 111.002C113.174 104.419 112.7 98.6003 112.677 98.3355ZM86.3594 25.133C89.1624 21.0447 92.7638 18.7246 94.6645 17.7068C94.2919 19.9359 93.0105 24.4708 88.6508 28.9421C87.9809 27.6413 87.2123 26.3715 86.3594 25.133ZM92.4678 17.02C90.4321 18.2884 87.6706 20.4306 85.3155 23.6932C84.3548 22.4364 83.3149 21.2472 82.2023 20.1294C83.4252 19.3439 87.2149 17.2212 92.4678 17.02ZM41.6841 10.9258C40.1495 11.4685 38.6487 12.1086 37.1972 12.8551C36.7999 8.62268 35.3705 5.22507 34.167 3.03616C38.8395 5.88979 41.105 9.80022 41.6841 10.9258ZM31.9184 2.56228C33.0959 4.40325 35.155 8.27344 35.5549 13.3497C35.5653 13.4744 35.6068 13.5873 35.6639 13.6899C35.6587 13.6938 35.6522 13.6964 35.647 13.699C34.3306 14.4585 33.0907 15.2959 31.9158 16.193C29.9346 9.71843 31.1147 4.79014 31.9184 2.56228ZM36.4896 15.1608C42.3124 11.8022 49.0246 10.2131 55.8886 10.4922C54.1203 14.661 47.0317 29.8561 35.8898 34.4027C31.4107 36.2307 26.7434 36.1022 22.0073 34.0652C23.9235 26.156 29.0375 19.4595 36.4896 15.1608ZM21.6697 35.7439C24.2754 36.8201 26.8654 37.3914 29.4218 37.3914C31.8249 37.3914 34.1995 36.9149 36.5312 35.9633C48.9675 30.8857 56.2911 14.0378 57.6725 10.6091C59.2888 10.7506 60.9104 10.9908 62.528 11.3426C71.6264 13.3173 79.481 18.3832 84.643 25.6094C88.0497 30.378 90.0024 35.7114 90.423 41.1525L86.8787 40.2943C86.4282 40.1879 85.9712 40.4631 85.8595 40.9162C85.7505 41.3693 86.0283 41.825 86.4814 41.9354L90.5061 42.9091C90.51 43.1687 90.5113 43.4284 90.5087 43.6894L84.7716 42.2625C84.3146 42.1496 83.8615 42.4261 83.7485 42.8779C83.6356 43.3297 83.9108 43.788 84.3639 43.901L90.436 45.4109C90.4178 45.6679 90.3996 45.9237 90.375 46.1808L85.2454 44.911C84.7936 44.7994 84.3353 45.0746 84.2237 45.5277C84.112 45.9808 84.3873 46.4378 84.8404 46.5495L90.1633 47.8672C90.0776 48.4138 89.9777 48.9604 89.8595 49.5044C88.0783 57.7121 82.8774 64.6671 75.211 69.089C67.912 73.3006 59.2122 74.7327 50.5656 73.1799C51.9055 72.0128 52.8389 70.46 53.2219 68.6917L55.2512 59.3376C58.2801 59.0117 61.2116 58.1367 63.8977 56.7164C64.3093 56.4982 64.4664 55.9867 64.2496 55.5752C64.0315 55.1649 63.5225 55.0078 63.1084 55.2233C58.5008 57.6615 53.1116 58.3652 47.7977 57.2915L51.8419 38.6468C52.1366 38.6832 52.43 38.7299 52.7273 38.7299C53.9581 38.7299 55.1953 38.4196 56.3093 37.8198C57.7568 37.0395 58.7513 35.888 58.9707 34.7364C59.1953 33.5562 58.6475 32.341 57.4284 31.3154C56.343 30.4027 54.8175 29.7224 53.1324 29.4017C49.4271 28.6968 46.1761 29.9301 45.7399 32.2138C45.5205 33.3654 46.0216 34.8039 47.0797 36.0606C47.9236 37.0629 49.0038 37.8211 50.1956 38.269L46.1515 56.9124C40.7169 55.422 36.0703 52.1711 33.0479 47.7089C32.7869 47.322 32.2611 47.2207 31.8768 47.4829C31.4912 47.7439 31.39 48.2684 31.6509 48.654C33.5672 51.4843 36.1002 53.8458 39.0395 55.6492L36.9752 65.1669C36.7818 66.0588 36.7441 66.9585 36.8402 67.8414C25.4257 60.5762 19.4587 48.0114 21.6697 35.7439ZM38.624 65.5213L40.5779 56.5164C42.3073 57.4174 44.1456 58.1497 46.0879 58.6521C46.2398 58.691 46.393 58.7183 46.5462 58.7547C46.5695 58.7612 46.5864 58.778 46.6111 58.7832C46.65 58.7923 46.6877 58.7923 46.7266 58.7949C48.6766 59.2467 50.6396 59.4843 52.5832 59.4843C52.8896 59.4843 53.1947 59.4687 53.4998 59.457L51.5744 68.3308C51.1992 70.0601 50.1723 71.5389 48.6844 72.497C47.1966 73.4538 45.4231 73.7758 43.6951 73.3993C41.9658 73.0241 40.4858 71.9985 39.5289 70.5093C38.5695 69.0228 38.2488 67.2506 38.624 65.5213ZM95.7174 126.31H25.0868C25.0427 126.31 25.005 126.328 24.9635 126.334C24.8947 126.316 24.8271 126.291 24.7518 126.291C20.4182 126.291 16.8907 122.765 16.8907 118.43C16.8907 114.097 20.4169 110.569 24.7518 110.569C28.5143 110.569 31.7548 113.302 32.465 116.926H26.8641C26.3981 116.926 26.0203 117.303 26.0203 117.77C26.0203 118.236 26.3981 118.613 26.8641 118.613H34.4124H34.4137H44.6156C44.6169 118.613 44.6182 118.615 44.6195 118.615C44.6208 118.615 44.6221 118.613 44.6234 118.613H54.9525C54.9551 118.613 54.9564 118.615 54.959 118.615C54.9707 118.615 54.9837 118.615 54.9954 118.615C54.9967 118.615 54.998 118.613 54.998 118.613L78.1737 118.612C78.249 118.617 78.9371 118.668 80.0354 118.668C82.001 118.668 85.2766 118.508 88.6846 117.651C95.9005 115.836 100.155 111.747 100.99 105.825C101.055 105.364 100.734 104.936 100.272 104.872C99.8109 104.806 99.3838 105.128 99.3188 105.59C97.5376 118.228 78.4931 116.943 78.2386 116.928H55.7899C54.9603 87.2481 79.4694 79.3974 79.7199 79.3208C80.1652 79.1858 80.4171 78.7132 80.2808 78.2679C80.1445 77.8226 79.6745 77.572 79.2279 77.7057C78.9565 77.7875 72.5002 79.7947 66.1321 85.7486C60.3638 91.143 53.6698 100.916 54.1035 116.928H45.4634V96.5127C45.4634 96.0466 45.0856 95.6688 44.6195 95.6688C44.1534 95.6688 43.7756 96.0466 43.7756 96.5127V116.926H35.2563V68.8449C35.969 69.3188 36.709 69.7654 37.4634 70.1977C37.6451 70.6184 37.8541 71.0312 38.1073 71.4233C39.3082 73.2903 41.1648 74.5782 43.3355 75.0481C43.9275 75.1767 44.5234 75.2403 45.1141 75.2403C46.2956 75.2403 47.4588 74.9871 48.539 74.4925L48.813 74.5535C51.6588 75.1715 54.5189 75.4766 57.3466 75.4753C63.9678 75.4753 70.4086 73.8018 76.0536 70.5457C79.1033 68.7865 81.7816 66.6443 84.0393 64.1932C91.8238 67.7648 108.733 77.8265 110.997 98.4978C111.016 98.7263 112.744 121.136 95.7174 126.31Z" fill="#F97316"/>
<path d="M28.0132 27.6828C28.4014 27.936 28.9259 27.8243 29.1804 27.4335C30.0541 26.0872 31.6925 25.4082 33.2622 25.751C34.7915 26.0833 35.9665 27.292 36.2573 28.8279C36.3339 29.233 36.6883 29.516 37.0856 29.516C37.1375 29.516 37.1895 29.5121 37.2427 29.5017C37.701 29.416 38.0022 28.9746 37.9165 28.5163C37.5011 26.3105 35.8159 24.5786 33.6218 24.1021C31.3719 23.6101 29.0194 24.5838 27.7652 26.5157C27.5108 26.9064 27.6211 27.4297 28.0132 27.6828Z" fill="#F97316"/>
<path d="M71.9822 36.7189C72.373 36.972 72.8962 36.8604 73.1493 36.4709C74.0218 35.1233 75.6628 34.4443 77.2337 34.7883C78.7631 35.1194 79.9381 36.3281 80.2276 37.8653C80.3042 38.2703 80.6586 38.5533 81.0559 38.5533C81.1078 38.5533 81.1597 38.5494 81.213 38.5391C81.6713 38.4534 81.9725 38.012 81.8868 37.5537C81.4713 35.3479 79.7862 33.616 77.5921 33.1395C75.3369 32.65 72.987 33.6199 71.7342 35.5517C71.4797 35.9425 71.5914 36.4657 71.9822 36.7189Z" fill="#F97316"/>
</svg>
